<?xml version="1.0" standalone="no"?>
<!DOCTYPE svg PUBLIC "-//W3C//DTD SVG 20010904//EN"
 "http://www.w3.org/TR/2001/REC-SVG-20010904/DTD/svg10.dtd">
<svg version="1.0" xmlns="http://www.w3.org/2000/svg"
 width="512.000000pt" height="512.000000pt" viewBox="0 0 512.000000 512.000000"
 preserveAspectRatio="xMidYMid meet">
<metadata>
Created by potrace 1.14, written by Peter Selinger 2001-2017
</metadata>
<g transform="translate(0.000000,512.000000) scale(0.100000,-0.100000)"
fill="#000000" stroke="none">
<path d="M3650 3545 l0 -185 -185 0 -185 0 0 -130 0 -130 183 -2 182 -3 3
-182 2 -183 130 0 130 0 0 185 0 185 185 0 185 0 0 130 0 130 -185 0 -185 0 0
185 0 185 -130 0 -130 0 0 -185z"/>
<path d="M1000 2425 l0 -935 229 0 228 0 274 339 c151 187 279 340 284 340 6
0 100 -153 209 -339 l200 -340 289 0 c158 0 286 3 284 8 -2 4 -142 233 -311
509 -169 277 -316 518 -327 537 l-20 34 302 373 c166 206 309 382 317 392 14
16 1 17 -254 17 l-269 0 -462 -591 -463 -591 0 591 0 591 -255 0 -255 0 0
-935z"/>
</g>
</svg>
